#!OML:ASF E:\Style4\Style4.ASF
:FULLY-SPECIFIED
:DEGREES
2326
root -0.167858 17.6992 -1.64776 2.24782 -2.06707 4.70024
lowerback 8.4453 1.60395 1.33459
upperback 2.6075 2.28547 1.87095
thorax -2.05739 1.13362 0.950799
lowerneck -2.79381 -3.81093 -5.43506
upperneck -4.66971 -4.96713 0.722006
head -0.822233 -2.40535 1.11255
rclavicle 3.37934e-015 1.43125e-014
rhumerus 3.06418 34.6572 -62.7072
rradius 70.3758
rwrist -36.8816
rhand -8.88755 16.5541
rfingers 7.12502
rthumb 17.0547 -12.7172
lclavicle 3.37934e-015 1.43125e-014
lhumerus 24.0695 -22.6798 33.3692
lradius 125.021
lwrist 41.7294
lhand -9.30887 23.1086
lfingers 7.12502
lthumb 16.6491 52.4145
rfemur -20.9234 -0.49344 14.4347
rtibia 37.5746
rfoot -17.9313 -14.4631
rtoes -10.6062
lfemur -17.2568 0.888335 -23.9163
ltibia 32.1207
lfoot -17.6222 11.1353
ltoes -14.9631
2327
root -0.15526 17.6905 -1.64306 2.18493 -2.0903 4.67238
lowerback 8.45395 1.53746 1.36334
upperback 2.56347 2.20132 1.88391
thorax -2.1064 1.09144 0.955523
lowerneck -2.72521 -3.71286 -5.36585
upperneck -4.61964 -4.84512 0.59336
head -0.826401 -2.34511 1.0622
rclavicle -1.47101e-014 -9.54166e-015
rhumerus 1.73316 35.3385 -63.509
rradius 70.7577
rwrist -36.1791
rhand -9.15625 16.8948
rfingers 7.12502
rthumb 16.796 -12.3988
lclavicle -1.47101e-014 -9.54166e-015
lhumerus 24.8992 -21.9961 33.57
lradius 124.554
lwrist 40.4238
lhand -9.58116 22.5443
lfingers 7.12502
lthumb 16.3869 51.8721
rfemur -20.9487 -0.750872 14.427
rtibia 37.734
rfoot -17.9388 -14.2719
rtoes -10.9868
lfemur -17.3052 0.979166 -23.933
ltibia 32.3821
lfoot -17.6842 11.0943
ltoes -15.0243
2328
root -0.145227 17.6816 -1.63793 2.11513 -2.18162 4.5797
lowerback 8.43744 1.49901 1.42458
upperback 2.56063 2.15609 1.92661
thorax -2.09922 1.06882 0.970244
lowerneck -2.77578 -3.6226 -5.35939
upperneck -4.53474 -4.72238 0.527487
head -0.796864 -2.28475 1.03876
rclavicle -5.96354e-016 1.11319e-014
rhumerus 0.510642 36.0027 -64.2733
rradius 71.1548
rwrist -35.5779
rhand -9.48706 17.1916
rfingers 7.12502
rthumb 16.4776 -12.1287
lclavicle -5.96354e-016 1.11319e-014
lhumerus 25.6467 -21.318 33.7643
lradius 124.075
lwrist 39.0752
lhand -9.75698 21.611
lfingers 7.12502
lthumb 16.2177 50.9526
rfemur -20.9648 -0.882452 14.4991
rtibia 37.8981
rfoot -18.0266 -14.0774
rtoes -11.0565
lfemur -17.3165 1.08958 -23.861
ltibia 32.5977
lfoot -17.8317 11.0245
ltoes -14.8473
2329
root -0.134142 17.6718 -1.63041 2.02807 -2.27243 4.60873
lowerback 8.42447 1.45189 1.36971
upperback 2.56104 2.08913 1.94506
thorax -2.09377 1.03554 1.02712
lowerneck -2.85341 -3.51161 -5.37803
upperneck -4.42926 -4.56882 0.480871
head -0.756327 -2.20917 1.02501
rclavicle -7.95139e-016 3.81667e-014
rhumerus -0.589989 36.7392 -64.9683
rradius 71.4909
rwrist -34.9906
rhand -10.3071 17.4121
rfingers 7.12502
rthumb 15.6879 -11.9719
lclavicle -7.95139e-016 3.81667e-014
lhumerus 26.3301 -20.6287 33.9269
lradius 123.751
lwrist 38.0659
lhand -10.1724 21.0572
lfingers 7.12502
lthumb 15.8176 50.431
rfemur -20.9643 -0.966776 14.4251
rtibia 38.0797
rfoot -18.1257 -13.9243
rtoes -10.9445
lfemur -17.2927 1.14124 -23.9182
ltibia 32.7868
lfoot -18.1068 10.9442
ltoes -14.4394
2330
root -0.124073 17.6622 -1.6248 1.92863 -2.34446 4.6742
lowerback 8.4541 1.3987 1.28602
upperback 2.54425 2.01314 1.95804
thorax -2.13021 0.997634 1.09407
lowerneck -2.88374 -3.42062 -5.43172
upperneck -4.33008 -4.44414 0.435582
head -0.724068 -2.14745 1.01868
rclavicle 1.27222e-014 1.27222e-014
rhumerus -1.71226 37.5167 -65.6449
rradius 71.8139
rwrist -34.3021
rhand -11.5214 17.5933
rfingers 7.12502
rthumb 14.5182 -11.8787
lclavicle 1.27222e-014 1.27222e-014
lhumerus 26.988 -19.9143 34.1515
lradius 123.545
lwrist 37.3834
lhand -10.5978 20.9932
lfingers 7.12502
lthumb 15.4079 50.399
rfemur -20.9716 -0.987435 14.315
rtibia 38.2898
rfoot -18.2719 -13.8529
rtoes -10.83
lfemur -17.2712 1.19468 -24.0176
ltibia 32.9768
lfoot -18.2872 10.9264
ltoes -14.5105
2331
root -0.112164 17.654 -1.61948 1.87898 -2.39792 4.64624
lowerback 8.42953 1.33259 1.31371
upperback 2.50228 1.9289 1.98519
thorax -2.1591 0.955529 1.1151
lowerneck -2.92083 -3.35819 -5.42385
upperneck -4.15486 -4.35903 0.321222
head -0.668717 -2.10746 0.978858
rclavicle 1.45113e-014 3.33958e-014
rhumerus -2.90197 38.2815 -66.3731
rradius 72.2079
rwrist -33.6852
rhand -11.9892 17.9192
rfingers 7.12502
rthumb 14.0674 -11.5847
lclavicle 1.45113e-014 3.33958e-014
lhumerus 27.6183 -19.2433 34.4201
lradius 123.359
lwrist 36.8434
lhand -11.1664 21.0773
lfingers 7.12502
lthumb 14.8602 50.5244
rfemur -21.0316 -1.01453 14.3007
rtibia 38.5143
rfoot -18.4667 -13.7497
rtoes -10.5152
lfemur -17.3014 1.2275 -24.0248
ltibia 33.1698
lfoot -18.3355 10.8874
ltoes -14.1968
2332
root -0.0988492 17.6429 -1.61425 1.83023 -2.45708 4.64884
lowerback 8.38658 1.25366 1.3098
upperback 2.4653 1.82386 1.99075
thorax -2.17269 0.903206 1.13415
lowerneck -2.85935 -3.22369 -5.36215
upperneck -4.09775 -4.18709 0.200722
head -0.669783 -2.02247 0.932574
rclavicle -1.78906e-014 -7.95139e-015
rhumerus -4.08577 38.9975 -67.1725
rradius 72.6223
rwrist -33.0084
rhand -12.252 18.4729
rfingers 7.12502
rthumb 13.8142 -11.0484
lclavicle -1.78906e-014 -7.95139e-015
lhumerus 28.2104 -18.7518 34.5883
lradius 123.243
lwrist 36.3574
lhand -12.3691 21.3595
lfingers 7.12502
lthumb 13.7013 50.8884
rfemur -21.0985 -1.11594 14.2533
rtibia 38.7385
rfoot -18.5999 -13.6117
rtoes -10.306
lfemur -17.3328 1.21997 -24.065
ltibia 33.3764
lfoot -18.4378 10.8079
ltoes -13.7918
2333
root -0.0854262 17.633 -1.60622 1.73802 -2.54382 4.67961
lowerback 8.36652 1.20444 1.30031
upperback 2.46032 1.75692 1.97572
thorax -2.16579 0.869934 1.13108
lowerneck -2.76971 -3.05287 -5.25845
upperneck -4.15959 -3.97088 0.093237
head -0.713639 -1.91365 0.885682
rclavicle 1.90833e-014 -6.36111e-015
rhumerus -5.22048 39.6267 -67.9243
rradius 73.0991
rwrist -32.3764
rhand -12.7187 18.8134
rfingers 7.12502
rthumb 13.3643 -10.738
lclavicle 1.90833e-014 -6.36111e-015
lhumerus 28.9953 -18.2592 34.7289
lradius 123.084
lwrist 35.7297
lhand -13.2644 21.591
lfingers 7.12502
lthumb 12.8383 51.1762
rfemur -21.0963 -1.21876 14.1779
rtibia 38.9391
rfoot -18.6948 -13.4997
rtoes -10.6535
lfemur -17.3048 1.24448 -24.1421
ltibia 33.5756
lfoot -18.5756 10.8239
ltoes -13.9657
2334
root -0.0737943 17.6247 -1.59715 1.65261 -2.68827 4.70651
lowerback 8.38101 1.16922 1.27964
upperback 2.42993 1.7092 1.96265
thorax -2.20489 0.84605 1.13332
lowerneck -2.79866 -2.89767 -5.19896
upperneck -4.07779 -3.76251 0.0638756
head -0.690519 -1.81154 0.866272
rclavicle -5.96354e-015 7.95139e-015
rhumerus -6.33872 40.3035 -68.6674
rradius 73.6235
rwrist -31.6912
rhand -12.7971 19.0284
rfingers 7.12502
rthumb 13.2888 -10.528
lclavicle -5.96354e-015 7.95139e-015
lhumerus 29.8537 -17.5748 34.8883
lradius 122.799
lwrist 34.7556
lhand -13.5285 21.6637
lfingers 7.12502
lthumb 12.5837 51.2647
rfemur -21.1092 -1.24169 14.1058
rtibia 39.1158
rfoot -18.772 -13.4045
rtoes -11.0033
lfemur -17.2598 1.33979 -24.2088
ltibia 33.7441
lfoot -18.7398 10.8111
ltoes -13.7364
2335
root -0.0661546 17.6189 -1.58928 1.53181 -2.87052 4.67717
lowerback 8.44017 1.13664 1.23165
upperback 2.42736 1.66467 2.01036
thorax -2.24259 0.823766 1.21285
lowerneck -2.85836 -2.73292 -5.11388
upperneck -4.05652 -3.54382 -0.0620549
head -0.683238 -1.70294 0.812758
rclavicle 8.54774e-015 -1.59028e-015
rhumerus -7.38177 40.9777 -69.3327
rradius 74.2442
rwrist -30.8079
rhand -13.0157 19.3488
rfingers 7.12502
rthumb 13.0781 -10.2212
lclavicle 8.54774e-015 -1.59028e-015
lhumerus 30.5302 -16.7446 35.1332
lradius 122.453
lwrist 33.3749
lhand -13.6548 21.58
lfingers 7.12502
lthumb 12.4619 51.1884
rfemur -21.069 -1.14252 14.1032
rtibia 39.2741
rfoot -18.9624 -13.247
rtoes -10.5947
lfemur -17.1534 1.47452 -24.1927
ltibia 33.8778
lfoot -18.8909 10.824
ltoes -13.7374
2336
root -0.057785 17.6141 -1.58136 1.41158 -3.0386 4.647
lowerback 8.48341 1.11079 1.20414
upperback 2.43619 1.63028 2.06548
thorax -2.25933 0.806564 1.28804
lowerneck -2.80377 -2.59074 -4.92567
upperneck -4.17949 -3.37131 -0.33871
head -0.741802 -1.61492 0.69856
rclavicle 1.43125e-014 1.90833e-014
rhumerus -8.46251 41.6068 -69.9511
rradius 74.97
rwrist -29.7024
rhand -13.7447 19.77
rfingers 7.12502
rthumb 12.3752 -9.84367
lclavicle 1.43125e-014 1.90833e-014
lhumerus 31.1041 -15.9936 35.4367
lradius 122.148
lwrist 32.0429
lhand -14.0059 21.2635
lfingers 7.12502
lthumb 12.1235 50.8922
rfemur -21.0165 -1.0725 14.1111
rtibia 39.4223
rfoot -19.0508 -13.1768
rtoes -10.3593
lfemur -17.0506 1.59889 -24.1696
ltibia 34.0202
lfoot -19.0734 10.7004
ltoes -13.3058
2337
root -0.0485972 17.6053 -1.57078 1.31292 -3.16011 4.64774
lowerback 8.46402 1.07326 1.16423
upperback 2.41525 1.57791 2.09361
thorax -2.27136 0.780547 1.34504
lowerneck -2.70782 -2.46496 -4.8681
upperneck -4.20991 -3.21302 -0.413551
head -0.772557 -1.53515 0.668431
rclavicle -2.06736e-014 -3.97569e-014
rhumerus -9.66936 42.2182 -70.6708
rradius 75.7939
rwrist -28.5141
rhand -14.8474 20.0956
rfingers 7.12502
rthumb 11.3119 -9.57935
lclavicle -2.06736e-014 -3.97569e-014
lhumerus 31.7521 -15.4072 35.8001
lradius 121.98
lwrist 30.8377
lhand -14.3936 21.3243
lfingers 7.12502
lthumb 11.7496 50.9748
rfemur -20.9807 -1.07797 14.0835
rtibia 39.574
rfoot -19.1426 -13.118
rtoes -10.5616
lfemur -16.9694 1.70091 -24.185
ltibia 34.1696
lfoot -19.2543 10.568
ltoes -12.8342
